Coordinates
version=1
nRows=13
nColumns=22
inDegrees=yes

Units are S.I. units (second, meters, Newtons, ...)
If the header above contains a line with 'inDegrees', this indicates whether rotational values are in degrees (yes) or radians (no).

endheader
time	pelvis_tilt	pelvis_list	pelvis_rotation	pelvis_tx	pelvis_ty	pelvis_tz	hip_flexion_r	hip_adduction_r	hip_rotation_r	knee_angle_r	ankle_angle_r	subtalar_angle_r	hip_flexion_l	hip_adduction_l	hip_rotation_l	knee_angle_l	ankle_angle_l	subtalar_angle_l	lumbar_extension	lumbar_bending	lumbar_rotation
      4.17000000	      4.07124399	      2.30512920	     77.25770082	     -0.11441131	      1.00543179	     -0.35330418	     -5.92557098	      4.68120725	     -5.47930420	    -28.11574200	     12.88357926	      6.38237091	     16.59204640	     -1.89892717	     -7.98292587	    -22.73714027	      4.92767302	     -5.81138775	    -13.08572975	      3.88750086	      4.03993564
      4.18000000	      3.79589558	      2.28149256	     77.07973646	     -0.11451834	      1.00594189	     -0.35889603	     -5.10648891	      4.21156887	     -5.04235426	    -29.95155500	     12.20207741	      6.73322123	     16.17059693	     -1.56893089	     -8.28741975	    -22.48771292	      5.16474984	     -5.81947309	    -12.93163731	      3.58091221	      4.08400571
      4.19000000	      3.55636628	      2.17965134	     76.91591891	     -0.11462726	      1.00627007	     -0.36429021	     -4.14821666	      3.80112843	     -4.63651115	    -31.86234389	     11.49269530	      7.17483554	     15.85030741	     -1.29094223	     -8.54379137	    -22.25883529	      5.46436824	     -5.81667040	    -12.71248489	      3.33656342	      4.13271477
      4.20000000	      3.30409834	      2.15253381	     76.76990903	     -0.11469169	      1.00668942	     -0.36954778	     -3.24699962	      3.37580077	     -4.24810111	    -33.76484478	     10.70437034	      7.30750106	     15.45049030	     -0.98262155	     -8.81268860	    -21.99746150	      5.66910437	     -5.80778121	    -12.58815770	      3.04973137	      4.09252054
      4.21000000	      3.07856081	      2.06480222	     76.65600419	     -0.11478357	      1.00693292	     -0.37461766	     -2.24838931	      2.99601296	     -3.92099761	    -35.69121226	      9.95523784	      7.31241403	     15.14602224	     -0.71026862	     -9.02780586	    -21.77444674	      5.94016366	     -5.79301772	    -12.41713389	      2.81415491	      4.03626410
      4.22000000	      2.85844620	      2.05808322	     76.57234390	     -0.11485791	      1.00728236	     -0.37957250	     -1.33995466	      2.61156936	     -3.63752483	    -37.55894599	      9.22219393	      7.16023205	     14.75367311	     -0.41830402	     -9.22111285	    -21.52333462	      6.11967743	     -5.78274148	    -12.34854415	      2.55676487	      3.90708529
      4.23000000	      2.64675897	      2.01962119	     76.52543837	     -0.11497313	      1.00751089	     -0.38437015	     -0.38602534	      2.24344734	     -3.42105637	    -39.39002273	      8.62796724	      6.85911033	     14.42556290	     -0.13619641	     -9.37426806	    -21.30434301	      6.32655427	     -5.77366352	    -12.25770628	      2.32257313	      3.75100820
      4.24000000	      2.46615035	      1.95171866	     76.53008392	     -0.11513006	      1.00763463	     -0.38902888	      0.58500126	      1.91510866	     -3.29181979	    -41.13391931	      8.18587520	      6.38333158	     14.16082523	      0.11353252	     -9.46232821	    -21.13342395	      6.58776499	     -5.76728782	    -12.14821153	      2.13504677	      3.54456829
      4.25000000	      2.27436667	      1.97478840	     76.55119069	     -0.11531089	      1.00790455	     -0.39361236	      1.43621899	      1.54776872	     -3.19580332	    -42.73971425	      7.92562839	      6.06034619	     13.78346847	      0.40576337	     -9.53723258	    -20.90791251	      6.74613107	     -5.75869407	    -12.14235140	      1.91288764	      3.31049910
      4.26000000	      2.09698898	      1.96606103	     76.60943647	     -0.11555388	      1.00809021	     -0.39806338	      2.29767015	      1.19814563	     -3.16519656	    -44.20310200	      7.88876266	      5.67765240	     13.46677818	      0.68044348	     -9.57246895	    -20.71634862	      6.93040701	     -5.74982986	    -12.11103195	      1.72513576	      3.05136520
      4.27000000	      1.93939437	      1.95959860	     76.69098885	     -0.11582083	      1.00828220	     -0.40241255	      3.11721062	      0.86180908	     -3.19267916	    -45.48228650	      8.04121763	      5.32084480	     13.15478256	      0.93818334	     -9.57586589	    -20.53141796	      7.10879087	     -5.73835789	    -12.08729568	      1.56197665	      2.77479068
      4.28000000	      1.79964143	      1.94981233	     76.79452164	     -0.11613883	      1.00848665	     -0.40664835	      3.89717538	      0.53899784	     -3.26755819	    -46.55872961	      8.35387751	      4.98567870	     12.85368466	      1.18058310	     -9.55537760	    -20.34980732	      7.27126014	     -5.72387533	    -12.06845193	      1.43014289	      2.49135846
      4.29000000	      1.68078769	      1.93170320	     76.91213160	     -0.11647429	      1.00870763	     -0.41078334	      4.63823693	      0.23363148	     -3.39168588	    -47.42034337	      8.77714500	      4.65546128	     12.56269924	      1.40016896	     -9.51343605	    -20.16782603	      7.42379416	     -5.70658014	    -12.04547880	      1.32794741	      2.20492562
